<svg width="24" height="25" viewBox="0 0 24 25" fill="none" xmlns="http://www.w3.org/2000/svg">
<rect width="24" height="25" fill="black"/>
<path d="M8.63867 13.8271C8.63281 13.6162 8.62988 13.458 8.62988 13.3525C8.62988 12.7314 8.71777 12.1953 8.89355 11.7441C9.02246 11.4043 9.23047 11.0615 9.51758 10.7158C9.72852 10.4639 10.1064 10.0977 10.6514 9.61719C11.2021 9.13086 11.5596 8.74414 11.7236 8.45703C11.8877 8.16992 11.9697 7.85645 11.9697 7.5166C11.9697 6.90137 11.7295 6.3623 11.249 5.89941C10.7686 5.43066 10.1797 5.19629 9.48242 5.19629C8.80859 5.19629 8.24609 5.40723 7.79492 5.8291C7.34375 6.25098 7.04785 6.91016 6.90723 7.80664L5.28125 7.61328C5.42773 6.41211 5.86133 5.49219 6.58203 4.85352C7.30859 4.21484 8.2666 3.89551 9.45605 3.89551C10.7158 3.89551 11.7207 4.23828 12.4707 4.92383C13.2207 5.60938 13.5957 6.43848 13.5957 7.41113C13.5957 7.97363 13.4639 8.49219 13.2002 8.9668C12.9365 9.44141 12.4209 10.0186 11.6533 10.6982C11.1377 11.1553 10.8008 11.4922 10.6426 11.709C10.4844 11.9258 10.3672 12.1748 10.291 12.4561C10.2148 12.7373 10.1709 13.1943 10.1592 13.8271H8.63867ZM8.54199 17V15.1982H10.3438V17H8.54199Z" fill="white"/>
</svg>
